<svg xmlns="http://www.w3.org/2000/svg" width="16" height="15" viewBox="0 0 16 15" fill="none">
  <path d="M5.83458 1.38193C6.43329 -0.46069 9.0401 -0.460689 9.63881 1.38193L10.0941 2.78315C10.3618 3.6072 11.1298 4.16512 11.9962 4.16512H13.4695C15.407 4.16512 16.2125 6.64435 14.6451 7.78315L13.4532 8.64915C12.7522 9.15844 12.4589 10.0612 12.7266 10.8852L13.1819 12.2864C13.7806 14.1291 11.6716 15.6613 10.1042 14.5225L8.91226 13.6565C8.21129 13.1472 7.2621 13.1472 6.56112 13.6565L5.36917 14.5225C3.80175 15.6613 1.69279 14.1291 2.29149 12.2864L2.74678 10.8852C3.01452 10.0612 2.72121 9.15844 2.02023 8.64915L0.828281 7.78315C-0.739146 6.64435 0.0664067 4.16512 2.00385 4.16512H3.47718C4.34364 4.16512 5.11155 3.6072 5.3793 2.78315L5.83458 1.38193Z" fill="#FFC400"/>
</svg>