<svg xmlns="http://www.w3.org/2000/svg" width="16" height="15" viewBox="0 0 16 15" fill="none">
  <path d="M6.78552 1.69092C7.08487 0.769611 8.38851 0.769604 8.68787 1.69092L9.14294 3.09229C9.54459 4.32831 10.6968 5.16553 11.9965 5.16553H13.4691C14.4378 5.16553 14.8407 6.40472 14.057 6.97412L12.8656 7.84033C11.8142 8.6042 11.3743 9.95786 11.7758 11.1938L12.2308 12.5952C12.5302 13.5165 11.4755 14.2828 10.6918 13.7134L9.50037 12.8472C8.4489 12.0832 7.02448 12.0832 5.97302 12.8472L4.78162 13.7134C3.9979 14.2828 2.9432 13.5165 3.24255 12.5952L3.69763 11.1938C4.09909 9.95786 3.65917 8.6042 2.60779 7.84033L1.41638 6.97412C0.63267 6.40472 1.03555 5.16553 2.00427 5.16553H3.47693C4.77658 5.16553 5.9288 4.32831 6.33044 3.09229L6.78552 1.69092Z" stroke="#FFC300" stroke-width="2"/>
</svg>